<?xml version="1.0" encoding="UTF-8" standalone="no"?>
<!-- Created with Inkscape (http://www.inkscape.org/) -->

<svg
   xmlns:dc="http://purl.org/dc/elements/1.1/"
   xmlns:cc="http://creativecommons.org/ns#"
   xmlns:rdf="http://www.w3.org/1999/02/22-rdf-syntax-ns#"
   xmlns:svg="http://www.w3.org/2000/svg"
   xmlns="http://www.w3.org/2000/svg"
   xmlns:sodipodi="http://sodipodi.sourceforge.net/DTD/sodipodi-0.dtd"
   xmlns:inkscape="http://www.inkscape.org/namespaces/inkscape"
   width="64mm"
   height="64mm"
   viewBox="0 0 64 64"
   version="1.1"
   id="svg8"
   inkscape:version="0.92.5 (2060ec1f9f, 2020-04-08)"
   sodipodi:docname="logo.svg">
  <defs
     id="defs2" />
  <sodipodi:namedview
     id="base"
     pagecolor="#ffffff"
     bordercolor="#666666"
     borderopacity="1.0"
     inkscape:pageopacity="0.0"
     inkscape:pageshadow="2"
     inkscape:zoom="0.7"
     inkscape:cx="109.5939"
     inkscape:cy="-148.19138"
     inkscape:document-units="mm"
     inkscape:current-layer="layer1"
     showgrid="true"
     inkscape:window-width="936"
     inkscape:window-height="1016"
     inkscape:window-x="48"
     inkscape:window-y="27"
     inkscape:window-maximized="0">
    <inkscape:grid
       type="xygrid"
       id="grid815"
       units="mm"
       spacingx="0.99999997"
       spacingy="0.99999997"
       empspacing="8" />
  </sodipodi:namedview>
  <metadata
     id="metadata5">
    <rdf:RDF>
      <cc:Work
         rdf:about="">
        <dc:format>image/svg+xml</dc:format>
        <dc:type
           rdf:resource="http://purl.org/dc/dcmitype/StillImage" />
        <dc:title />
      </cc:Work>
    </rdf:RDF>
  </metadata>
  <g
     inkscape:label="Layer 1"
     inkscape:groupmode="layer"
     id="layer1"
     transform="translate(0,-233)">
    <rect
       style="opacity:1;fill:#d40000;fill-opacity:1;stroke:none;stroke-width:2;stroke-linecap:square;stroke-linejoin:round;stroke-miterlimit:4;stroke-dasharray:none;stroke-dashoffset:0;stroke-opacity:1"
       id="rect821"
       width="63.999992"
       height="63.999989"
       x="1.8384726e-06"
       y="233"
       ry="16.000002" />
    <g
       aria-label="ç‰"
       style="font-style:normal;font-weight:normal;font-size:10.58333302px;line-height:1.25;font-family:sans-serif;letter-spacing:0px;word-spacing:0px;fill:#ffffff;fill-opacity:1;stroke:#ffffff;stroke-width:2;stroke-miterlimit:4;stroke-dasharray:none"
       id="text819">
      <path
         d="m 32,240.43645 q 0,-0.82682 0.275608,-1.10243 0.275607,-0.2756 1.171332,-0.2756 1.79145,0 4.203017,0.96462 2.411567,0.96463 2.89388,1.79145 0.551215,1.24024 0.551215,2.61828 0,1.65364 -0.895725,1.65364 l -1.722547,-0.2067 -5.236546,-4.20302 Q 32.551215,241.05657 32,240.43645 Z m 20.050456,7.78592 q 0,0.68902 -0.689019,0.96463 -0.689019,0.2067 -3.031684,0.55121 l -9.990777,2.06706 -2.273763,0.68902 1.929253,1.37804 0.482314,0.75792 q 0.0689,0.2067 0.0689,0.68902 -4.754232,5.16764 -7.303603,8.88834 h 0.895725 q 0.620117,0 3.582899,-1.10243 l 7.785916,-1.79145 -1.309136,-1.37803 q -0.275608,-0.62012 -0.275608,-0.82683 0,-0.2067 0.206706,-0.41341 0.275608,-0.27561 0.275608,-0.34451 4.616428,1.10243 6.407877,3.10059 l 0.206706,2.54937 q -0.0689,1.03353 -0.826823,1.17133 l -1.10243,-0.20671 q -0.0689,0 -0.137804,-0.0689 l -2.273763,-2.13596 -0.0689,-0.0689 -9.71517,3.03169 q -3.858507,1.37803 -6.752387,3.30729 -1.240234,-0.0689 -2.273763,-1.30914 -0.964627,-1.24023 -0.551215,-1.99815 4.754231,-4.13412 6.338975,-6.61459 1.584744,-2.41156 1.584744,-4.40972 0,-0.75792 -0.206705,-1.51584 l -4.616428,0.1378 q -2.273763,-0.2067 -3.445096,-1.44694 0.551215,-0.48231 1.860352,-0.62012 1.309136,-0.1378 6.338975,-0.96462 5.02984,-0.89573 12.402345,-2.82498 2.342665,-0.55122 3.376193,-0.55122 1.998156,0 3.100586,1.30914 z m 6.890191,29.49002 q 0.620118,0 0.826823,1.10243 0.275608,1.03353 0.620117,3.10059 0.34451,1.99815 1.033529,3.51399 0,1.58475 -2.273763,2.75608 l -1.79145,0.89572 q -3.100586,0.62012 -5.581054,0.62012 -6.47678,0 -8.26823,-3.44509 -0.689019,-1.44694 -0.689019,-6.68349 0,-6.54568 -0.275608,-7.92372 l -0.137803,-0.82682 -0.551216,-1.99816 q -0.0689,-0.89572 0.895725,-0.89572 0.826823,0 1.860352,0.75792 1.10243,0.75792 1.44694,1.30913 l -0.689019,8.88835 v 0.34451 q 0,4.06521 1.309136,5.51215 1.378038,1.44694 5.02984,1.44694 2.54937,0 4.203016,-1.24023 1.653646,-2.96278 3.031684,-7.2347 z m -24.253472,-7.44141 q 0.551215,0 1.584744,0.68902 1.10243,0.62012 1.584743,1.30914 -0.137803,1.37804 -0.206705,7.71701 -0.0689,6.27008 -0.964627,9.50847 -0.34451,0.3445 -0.826823,0.3445 -1.584744,-1.24023 -1.584744,-4.06521 0,-0.82682 0.275608,-3.03168 0.344509,-2.20486 0.344509,-2.68718 0,-5.30544 -1.10243,-8.61274 0.137804,-1.17133 0.895725,-1.17133 z M 20.011067,248.08457 q 2.342665,0 3.376194,1.24023 0,0.41341 -0.551215,0.82682 -0.551216,0.34451 -1.515842,0.75793 -0.964627,0.3445 -1.860352,0.62011 -0.895725,0.27561 -2.067057,0.62012 -1.171333,0.34451 -1.722548,0.55121 1.584744,0.96463 1.584744,3.3762 0,0.55121 -0.206706,2.20486 -0.206706,1.65365 -0.206706,2.54937 0,0.55122 0.0689,0.75792 l 1.653646,-0.48231 q 0.0689,-0.0689 0.620117,-0.0689 2.342665,0 3.23839,0.82682 0,1.44694 -4.823133,2.68717 l -0.68902,0.20671 -0.413411,11.23101 h 0.551215 q 4.203017,-1.72255 5.581055,-1.99815 0,0.82682 -1.929253,2.06705 -1.860352,1.17134 -6.063369,3.72071 -4.203016,2.54937 -7.8548176,5.37434 -1.7914497,-0.2067 -2.8938802,-1.17133 -1.0335287,-0.96462 -1.3091364,-1.86035 v -0.55121 q 4.1341147,-1.79145 11.0243062,-4.34082 l 0.137803,-11.23102 q -0.275607,0 -1.584743,0.48232 -1.240235,0.41341 -2.4804693,0.41341 -2.5493707,0 -3.5139975,-0.89573 0.068902,-0.2756 0.9646268,-0.55121 0.8957248,-0.34451 2.8249784,-0.89573 1.9981556,-0.62011 3.6518016,-1.30913 0.137803,-2.34267 0.137803,-3.16949 0,-3.99631 -1.033528,-6.68349 -1.44694,0.48232 -2.8938805,0.48232 -2.4804688,0 -3.9274089,-1.24024 0.068902,-0.48231 1.2402344,-0.82682 l 5.856662,-1.44694 5.236546,-1.99816 q 0.826823,-0.2756 1.791449,-0.2756 z m 10.679797,26.87174 q 0,0.62012 -1.033529,2.34267 -2.204861,6.89019 -4.547526,9.71517 -2.273763,2.82497 -6.338976,3.7896 -0.689019,0.13781 -1.033529,0.13781 -0.206705,0 -0.895725,-0.13781 6.132271,-3.99631 8.130426,-8.19933 1.309136,-2.82497 1.309136,-6.61458 v -1.58474 l -0.482313,-0.96463 q -0.0689,-0.1378 0,-0.27561 0.0689,-0.1378 0.34451,-0.27561 0.344509,-0.1378 0.826822,-0.1378 1.309137,0 2.893881,1.37804 z"
         style="font-style:normal;font-variant:normal;font-weight:normal;font-stretch:normal;font-size:70.55555725px;font-family:'cwTeX Q Kai';-inkscape-font-specification:'cwTeX Q Kai';fill:#ffffff;stroke:#ffffff;stroke-width:2;stroke-miterlimit:4;stroke-dasharray:none"
         id="path824"
         inkscape:connector-curvature="0" />
    </g>
  </g>
</svg>
